<?xml version="1.0" encoding="UTF-8"?>
<svg width="128" height="128" viewBox="0 0 128 128" xmlns="http://www.w3.org/2000/svg">
    <defs>
        <linearGradient id="tabGradient" x1="0%" y1="0%" x2="100%" y2="100%">
            <stop offset="0%" style="stop-color:#1A237E"/>
            <stop offset="100%" style="stop-color:#5C6BC0"/>
        </linearGradient>
        <linearGradient id="eliteGradient" x1="0%" y1="0%" x2="100%" y2="0%">
            <stop offset="0%" style="stop-color:#6B46C1"/>
            <stop offset="100%" style="stop-color:#805AD5"/>
        </linearGradient>
    </defs>
    
    <!-- Main Tab Shape -->
    <path d="M24 32
             C24 24 28 16 36 16
             H92
             C100 16 104 24 104 32
             V96
             C104 104 100 112 92 112
             H36
             C28 112 24 104 24 96
             V32Z" 
          fill="url(#tabGradient)"/>
    
    <!-- Sync Arrow -->
    <path d="M64 40
             A20 20 0 1 1 44 60
             H52
             L44 72
             L36 60
             H44
             A28 28 0 1 0 64 32
             V40Z" 
          fill="white" fill-opacity="0.9"/>
    
    <path d="M64 80
             A20 20 0 1 0 84 60
             H76
             L84 48
             L92 60
             H84
             A28 28 0 1 1 64 88
             V80Z" 
          fill="white" fill-opacity="0.9"/>
</svg> 